<?xml version="1.0" encoding="UTF-8" standalone="no"?>
<!-- Generator: Adobe Illustrator 26.0.3, SVG Export Plug-In . SVG Version: 6.00 Build 0)  -->

<svg
   version="1.1"
   id="レイヤー_1"
   x="0px"
   y="0px"
   viewBox="0 0 91.699997 116.675"
   xml:space="preserve"
   sodipodi:docname="ryoushi.svg"
   width="91.699997"
   height="116.675"
   inkscape:version="1.2.1 (9c6d41e410, 2022-07-14, custom)"
   xmlns:inkscape="http://www.inkscape.org/namespaces/inkscape"
   xmlns:sodipodi="http://sodipodi.sourceforge.net/DTD/sodipodi-0.dtd"
   xmlns="http://www.w3.org/2000/svg"
   xmlns:svg="http://www.w3.org/2000/svg"><defs
   id="defs40376" /><sodipodi:namedview
   id="namedview40374"
   pagecolor="#ffffff"
   bordercolor="#000000"
   borderopacity="0.25"
   inkscape:showpageshadow="2"
   inkscape:pageopacity="0.0"
   inkscape:pagecheckerboard="0"
   inkscape:deskcolor="#d1d1d1"
   showgrid="false"
   inkscape:zoom="4.9469077"
   inkscape:cx="60.947165"
   inkscape:cy="55.590283"
   inkscape:window-width="1112"
   inkscape:window-height="1035"
   inkscape:window-x="9"
   inkscape:window-y="34"
   inkscape:window-maximized="1"
   inkscape:current-layer="レイヤー_1" />
<style
   type="text/css"
   id="style40328">
	.st0{fill:#302D2C;}
</style>
<g
   id="グループ_4639">
	
	
	
	
	
	
	
	
	
	
	
	
	
	
	
	
	
	
	<path
   id="パス_3360"
   class="st0"
   d="m 30.1,87.7 4.5,-3.9 c 1.7,-1.5 1.9,-4 0.4,-5.7 C 34.9,78 34.9,77.9 34.8,77.9 L 34.1,77 28.3,82.8 Z"
   style="fill:#c0441a;fill-opacity:1" />
	<path
   id="パス_3361"
   class="st0"
   d="m 0.3,103.8 12.6,12.5 c 0.5,0.5 1.2,0.5 1.7,0 0.1,-0.1 0.1,-0.1 0.2,-0.2 l 2.1,-3.3 -14,-13.9 -2.6,3.3 c -0.4,0.5 -0.4,1.1 0,1.6"
   style="fill:#c0441a;fill-opacity:1" />
	<path
   id="パス_3362"
   class="st0"
   d="m 25.2,81.2 2.9,-2.9 -8.8,-8.8 -2.9,2.9 c -0.1,0.1 -5.7,5.8 -2.9,11.4 0.3,0.6 0.2,1.3 -0.2,1.8 l -8.4,10.6 13.7,13.6 9.1,-14.6 c 0.7,-1.1 0.8,-2.4 0.3,-3.6 L 24.8,83 c -0.2,-0.7 -0.1,-1.3 0.4,-1.8"
   style="fill:#c0441a;fill-opacity:1" />
	<path
   id="パス_3363"
   class="st0"
   d="m 54,33.2 c -0.3,0 -0.5,0.2 -0.7,0.3 L 21.5,65.3 c -0.5,0.5 -0.5,1.2 0,1.7 0,0 0,0 0,0 l 9,8.9 26.4,-26.3 c 3.5,-3.5 3.8,-9 0.8,-12.9 l -2.4,-3.1 c -0.2,-0.3 -0.5,-0.4 -0.9,-0.5 -0.2,0 -0.3,0.1 -0.4,0.1"
   style="fill:#c0441a;fill-opacity:1" />
	<path
   id="パス_3364"
   class="st0"
   d="m 56.4,31.9 2.4,3.1 c 0.2,0.3 0.4,0.5 0.6,0.8 L 91.7,3.7 88,0 56.2,31.7 c 0.1,0.1 0.2,0.1 0.2,0.2"
   style="fill:#c0441a;fill-opacity:1" />
	<path
   id="パス_3365"
   class="st0"
   d="M 78,6.8 C 77.6,6.4 77,6.2 76.4,6.3 76,6.4 75.6,6.5 75.3,6.8 c -0.4,0.4 -0.6,0.8 -0.6,1.4 0,0.5 0.2,1 0.6,1.4 l 1.5,1.5 2.7,-2.7 z"
   style="fill:#c0441a;fill-opacity:1" />
	
</g>
</svg>
