<?xml version="1.0" encoding="UTF-8" standalone="no"?>
<!-- Created with Inkscape (http://www.inkscape.org/) -->

<svg
   width="137.73888mm"
   height="97.782776mm"
   viewBox="0 0 137.73888 97.782776"
   version="1.1"
   id="svg5"
   xml:space="preserve"
   inkscape:version="1.2.1 (9c6d41e410, 2022-07-14, custom)"
   sodipodi:docname="shouya.svg"
   xmlns:inkscape="http://www.inkscape.org/namespaces/inkscape"
   xmlns:sodipodi="http://sodipodi.sourceforge.net/DTD/sodipodi-0.dtd"
   xmlns="http://www.w3.org/2000/svg"
   xmlns:svg="http://www.w3.org/2000/svg"><sodipodi:namedview
     id="namedview7"
     pagecolor="#ffffff"
     bordercolor="#000000"
     borderopacity="0.25"
     inkscape:showpageshadow="2"
     inkscape:pageopacity="0.0"
     inkscape:pagecheckerboard="0"
     inkscape:deskcolor="#d1d1d1"
     inkscape:document-units="mm"
     showgrid="false"
     inkscape:zoom="0.38796647"
     inkscape:cx="293.83982"
     inkscape:cy="-376.32118"
     inkscape:window-width="632"
     inkscape:window-height="1035"
     inkscape:window-x="586"
     inkscape:window-y="34"
     inkscape:window-maximized="1"
     inkscape:current-layer="layer1" /><defs
     id="defs2" /><g
     inkscape:label="Layer 1"
     inkscape:groupmode="layer"
     id="layer1"
     transform="translate(-32.563864,-40.466996)"><g
       id="g27070"><path
         style="fill:none;stroke:#ffa628;stroke-width:6.29999;stroke-dasharray:none;stroke-opacity:1"
         d="m 37.850454,81.056566 c 0,0 24.107902,-37.520534 62.128318,-37.439442 47.169868,0.100607 66.131388,38.367801 66.131388,38.367801 l -30.56247,15.934869 c 0,0 -16.82358,-13.517991 -35.48225,-13.043401 -17.650993,0.44896 -31.492543,12.747254 -31.492543,12.747254 z"
         id="path26993"
         sodipodi:nodetypes="csccscc" /><path
         style="fill:none;stroke:#ffa628;stroke-width:6.29999;stroke-dasharray:none;stroke-opacity:1"
         d="m 87.651295,125.76842 14.283775,-8.81709 14.06694,8.45348 c 0,0 -7.5389,9.63346 -13.69075,9.69454 -6.473973,0.0643 -14.659965,-9.33093 -14.659965,-9.33093 z"
         id="path27057"
         sodipodi:nodetypes="cccsc" /><path
         style="fill:none;stroke:#ffa628;stroke-width:6.29999;stroke-dasharray:none;stroke-opacity:1"
         d="m 86.687278,108.12101 14.877682,8.78753 15.29329,-8.59783 c 0,0 -3.68471,-5.84857 -13.94609,-6.0956 -11.500592,-0.27686 -16.224882,5.9059 -16.224882,5.9059 z"
         id="path27061"
         sodipodi:nodetypes="cccsc" /><path
         style="fill:none;stroke:#ffa628;stroke-width:5.1;stroke-dasharray:none;stroke-opacity:1"
         d="m 68.223473,98.32166 18.774045,10.29725 z"
         id="path27166"
         sodipodi:nodetypes="ccc" /><path
         style="fill:none;stroke:#ffa628;stroke-width:5.1;stroke-dasharray:none;stroke-opacity:1"
         d="m 119.06433,107.99467 16.02553,-9.715597 z"
         id="path27168"
         sodipodi:nodetypes="ccc" /><path
         style="fill:none;stroke:#ffa628;stroke-width:5.1;stroke-dasharray:none;stroke-opacity:1"
         d="m 36.09853,81.652051 65.73129,35.089839 64.96093,-34.970846 c 0,0 -14.64344,-37.590027 -66.77293,-38.666501 C 59.027527,42.258094 36.09853,81.652051 36.09853,81.652051 Z"
         id="path27171"
         sodipodi:nodetypes="cccsc" /><path
         style="fill:none;stroke:#ffa628;stroke-width:5.1;stroke-dasharray:none;stroke-opacity:1"
         d="m 87.395756,125.38699 c 0,0 2.657253,9.40355 14.816474,9.55276 11.20936,0.13755 14.19341,-9.0729 14.19341,-9.0729 l -14.49604,-8.88478 z"
         id="path27173"
         sodipodi:nodetypes="csccc" /><path
         style="fill:none;stroke:#ffa628;stroke-width:5.1;stroke-dasharray:none;stroke-opacity:1"
         d="m 67.204584,99.600852 c 0,0 8.682626,-14.527305 34.543966,-14.487863 23.04978,0.03515 34.11466,13.377634 34.11466,13.377634"
         id="path27177"
         sodipodi:nodetypes="csc" /><path
         style="fill:none;stroke:#ffa628;stroke-width:5.1;stroke-dasharray:none;stroke-opacity:1"
         d="m 83.980553,88.26656 9.532356,16.31351"
         id="path27179"
         sodipodi:nodetypes="cc" /><path
         style="fill:none;stroke:#ffa628;stroke-width:5.1;stroke-dasharray:none;stroke-opacity:1"
         d="m 101.80356,85.009396 -0.27478,15.826834"
         id="path27181"
         sodipodi:nodetypes="cc" /><path
         style="fill:none;stroke:#ffa628;stroke-width:5.1;stroke-dasharray:none;stroke-opacity:1"
         d="m 120.34414,88.643509 -10.3096,14.934261"
         id="path27183"
         sodipodi:nodetypes="cc" /><path
         style="fill:none;stroke:#ffa628;stroke-width:5.1;stroke-dasharray:none;stroke-opacity:1"
         d="m 86.020181,109.17256 c 0,0 2.904367,-6.47877 15.580669,-6.24243 10.57411,0.19714 15.9892,5.39074 15.9892,5.39074"
         id="path27185"
         sodipodi:nodetypes="csc" /></g></g></svg>
